HIERARCHY
ROOT Hips
{
	OFFSET -2.108698 85.844658 6.438918
	CHANNELS 6 Xposition Yposition Zposition Zrotation Yrotation Xrotation 
	JOINT Spine
	{
		OFFSET 0.000000 8.814246 -2.080107
		CHANNELS 3 Zrotation Yrotation Xrotation
		JOINT Spine1
		{
			OFFSET -0.000000 8.844141 -0.000000
			CHANNELS 3 Zrotation Yrotation Xrotation
			JOINT Spine2
			{
				OFFSET 0.000000 11.682268 0.000000
				CHANNELS 3 Zrotation Yrotation Xrotation
				JOINT Spine3
				{
					OFFSET -0.000000 11.746700 -0.000000
					CHANNELS 3 Zrotation Yrotation Xrotation
					JOINT Neck
					{
						OFFSET -0.000000 17.658264 -0.000000
						CHANNELS 3 Zrotation Yrotation Xrotation
						JOINT Neck1
						{
							OFFSET 0.000000 5.101515 0.000000
							CHANNELS 3 Zrotation Yrotation Xrotation
							JOINT Head
							{
								OFFSET -0.000000 5.101515 -0.000000
								CHANNELS 3 Zrotation Yrotation Xrotation
								JOINT HeadEnd
								{
									OFFSET 0.000000 11.655085 0.000000
									CHANNELS 3 Zrotation Yrotation Xrotation
									End Site
									{
										OFFSET 0.000000 0.000000 0.000000
									}
								}
							}
						}
					}
					JOINT RightShoulder
					{
						OFFSET -2.625389 11.175210 -0.000000
						CHANNELS 3 Zrotation Yrotation Xrotation
						JOINT RightArm
						{
							OFFSET 0.000000 10.434715 0.000000
							CHANNELS 3 Zrotation Yrotation Xrotation
							JOINT RightForeArm
							{
								OFFSET 0.000000 29.628420 0.000000
								CHANNELS 3 Zrotation Yrotation Xrotation
								JOINT RightHand
								{
									OFFSET -0.000000 22.857611 0.000000
									CHANNELS 3 Zrotation Yrotation Xrotation
									JOINT RightHandThumb1
									{
										OFFSET -2.867323 3.959563 2.944291
										CHANNELS 3 Zrotation Yrotation Xrotation
										JOINT RightHandThumb2
										{
											OFFSET -0.000000 3.350399 0.000000
											CHANNELS 3 Zrotation Yrotation Xrotation
											JOINT RightHandThumb3
											{
												OFFSET 0.000000 3.756509 -0.000000
												CHANNELS 3 Zrotation Yrotation Xrotation
												JOINT RightHandThumb4
												{
													OFFSET -0.000000 3.147345 0.000000
													CHANNELS 3 Zrotation Yrotation Xrotation
													End Site
													{
														OFFSET 0.000000 0.000000 0.000000
													}
												}
											}
										}
									}
									JOINT RightHandIndex1
									{
										OFFSET -0.086752 10.030893 2.345280
										CHANNELS 3 Zrotation Yrotation Xrotation
										JOINT RightHandIndex2
										{
											OFFSET 0.000000 4.061090 -0.000000
											CHANNELS 3 Zrotation Yrotation Xrotation
											JOINT RightHandIndex3
											{
												OFFSET -0.000000 3.248873 0.000000
												CHANNELS 3 Zrotation Yrotation Xrotation
												JOINT RightHandIndex4
												{
													OFFSET 0.000000 2.639709 0.000000
													CHANNELS 3 Zrotation Yrotation Xrotation
													End Site
													{
														OFFSET 0.000000 0.000000 0.000000
													}
												}
											}
										}
									}
									JOINT RightHandMiddle1
									{
										OFFSET 0.104102 9.502952 0.006768
										CHANNELS 3 Zrotation Yrotation Xrotation
										JOINT RightHandMiddle2
										{
											OFFSET 0.000000 4.568727 0.000000
											CHANNELS 3 Zrotation Yrotation Xrotation
											JOINT RightHandMiddle3
											{
												OFFSET -0.000000 3.654981 0.000000
												CHANNELS 3 Zrotation Yrotation Xrotation
												JOINT RightHandMiddle4
												{
													OFFSET 0.000000 2.741236 -0.000000
													CHANNELS 3 Zrotation Yrotation Xrotation
													End Site
													{
														OFFSET 0.000000 0.000000 0.000000
													}
												}
											}
										}
									}
									JOINT RightHandRing1
									{
										OFFSET 0.086752 8.921708 -2.267442
										CHANNELS 3 Zrotation Yrotation Xrotation
										JOINT RightHandRing2
										{
											OFFSET -0.000000 4.061090 0.000000
											CHANNELS 3 Zrotation Yrotation Xrotation
											JOINT RightHandRing3
											{
												OFFSET -0.000000 3.654981 0.000000
												CHANNELS 3 Zrotation Yrotation Xrotation
												JOINT RightHandRing4
												{
													OFFSET 0.000000 2.741236 -0.000000
													CHANNELS 3 Zrotation Yrotation Xrotation
													End Site
													{
														OFFSET 0.000000 0.000000 0.000000
													}
												}
											}
										}
									}
									JOINT RightHandPinky1
									{
										OFFSET -0.173504 7.976997 -4.467199
										CHANNELS 3 Zrotation Yrotation Xrotation
										JOINT RightHandPinky2
										{
											OFFSET 0.000000 3.350399 -0.000000
											CHANNELS 3 Zrotation Yrotation Xrotation
											JOINT RightHandPinky3
											{
												OFFSET -0.000000 2.842763 -0.000000
												CHANNELS 3 Zrotation Yrotation Xrotation
												JOINT RightHandPinky4
												{
													OFFSET 0.000000 2.639709 -0.000000
													CHANNELS 3 Zrotation Yrotation Xrotation
													End Site
													{
														OFFSET 0.000000 0.000000 0.000000
													}
												}
											}
										}
									}
									JOINT RightForeArmEnd
									{
										OFFSET 0.000000 0.000000 0.000000
										CHANNELS 3 Zrotation Yrotation Xrotation
										End Site
										{
											OFFSET 0.000000 0.000000 0.000000
										}
									}
								}
								JOINT RightArmEnd
								{
									OFFSET 0.000000 0.000000 0.000000
									CHANNELS 3 Zrotation Yrotation Xrotation
									End Site
									{
										OFFSET 0.000000 0.000000 0.000000
									}
								}
							}
						}
					}
					JOINT LeftShoulder
					{
						OFFSET 2.625389 11.175210 0.000000
						CHANNELS 3 Zrotation Yrotation Xrotation
						JOINT LeftArm
						{
							OFFSET 0.000000 10.813635 -0.000000
							CHANNELS 3 Zrotation Yrotation Xrotation
							JOINT LeftForeArm
							{
								OFFSET 0.000000 28.724781 -0.000000
								CHANNELS 3 Zrotation Yrotation Xrotation
								JOINT LeftHand
								{
									OFFSET 0.644384 25.716167 -0.328871
									CHANNELS 3 Zrotation Yrotation Xrotation
									JOINT LeftHandThumb1
									{
										OFFSET 2.867323 3.959563 2.944291
										CHANNELS 3 Zrotation Yrotation Xrotation
										JOINT LeftHandThumb2
										{
											OFFSET 0.000000 3.350399 0.000000
											CHANNELS 3 Zrotation Yrotation Xrotation
											JOINT LeftHandThumb3
											{
												OFFSET -0.000000 3.756509 -0.000000
												CHANNELS 3 Zrotation Yrotation Xrotation
												JOINT LeftHandThumb4
												{
													OFFSET -0.000000 3.100000 -0.000000
													CHANNELS 3 Zrotation Yrotation Xrotation
													End Site
													{
														OFFSET 0.000000 0.000000 0.000000
													}
												}
											}
										}
									}
									JOINT LeftHandIndex1
									{
										OFFSET 0.086752 10.030893 2.345280
										CHANNELS 3 Zrotation Yrotation Xrotation
										JOINT LeftHandIndex2
										{
											OFFSET -0.000000 4.061090 -0.000000
											CHANNELS 3 Zrotation Yrotation Xrotation
											JOINT LeftHandIndex3
											{
												OFFSET 0.000000 3.248873 0.000000
												CHANNELS 3 Zrotation Yrotation Xrotation
												JOINT LeftHandIndex4
												{
													OFFSET 0.000000 2.639709 0.000000
													CHANNELS 3 Zrotation Yrotation Xrotation
													End Site
													{
														OFFSET 0.000000 0.000000 0.000000
													}
												}
											}
										}
									}
									JOINT LeftHandMiddle1
									{
										OFFSET -0.104102 9.502952 0.006768
										CHANNELS 3 Zrotation Yrotation Xrotation
										JOINT LeftHandMiddle2
										{
											OFFSET -0.000000 4.568727 -0.000000
											CHANNELS 3 Zrotation Yrotation Xrotation
											JOINT LeftHandMiddle3
											{
												OFFSET 0.000000 3.654981 0.000000
												CHANNELS 3 Zrotation Yrotation Xrotation
												JOINT LeftHandMiddle4
												{
													OFFSET 0.000000 2.741236 0.000000
													CHANNELS 3 Zrotation Yrotation Xrotation
													End Site
													{
														OFFSET 0.000000 0.000000 0.000000
													}
												}
											}
										}
									}
									JOINT LeftHandRing1
									{
										OFFSET -0.086752 8.921708 -2.267442
										CHANNELS 3 Zrotation Yrotation Xrotation
										JOINT LeftHandRing2
										{
											OFFSET -0.000000 4.061090 -0.000000
											CHANNELS 3 Zrotation Yrotation Xrotation
											JOINT LeftHandRing3
											{
												OFFSET 0.000000 3.654981 0.000000
												CHANNELS 3 Zrotation Yrotation Xrotation
												JOINT LeftHandRing4
												{
													OFFSET 0.000000 2.741236 -0.000000
													CHANNELS 3 Zrotation Yrotation Xrotation
													End Site
													{
														OFFSET 0.000000 0.000000 0.000000
													}
												}
											}
										}
									}
									JOINT LeftHandPinky1
									{
										OFFSET 0.173504 7.976997 -4.467199
										CHANNELS 3 Zrotation Yrotation Xrotation
										JOINT LeftHandPinky2
										{
											OFFSET -0.000000 3.350399 -0.000000
											CHANNELS 3 Zrotation Yrotation Xrotation
											JOINT LeftHandPinky3
											{
												OFFSET 0.000000 2.842763 -0.000000
												CHANNELS 3 Zrotation Yrotation Xrotation
												JOINT LeftHandPinky4
												{
													OFFSET 0.000000 2.639709 -0.000000
													CHANNELS 3 Zrotation Yrotation Xrotation
													End Site
													{
														OFFSET 0.000000 0.000000 0.000000
													}
												}
											}
										}
									}
									JOINT LeftForeArmEnd
									{
										OFFSET 0.000000 0.000000 0.000000
										CHANNELS 3 Zrotation Yrotation Xrotation
										End Site
										{
											OFFSET 0.000000 0.000000 0.000000
										}
									}
								}
								JOINT LeftArmEnd
								{
									OFFSET 0.000000 0.000000 0.000000
									CHANNELS 3 Zrotation Yrotation Xrotation
									End Site
									{
										OFFSET 0.000000 0.000000 0.000000
									}
								}
							}
						}
					}
				}
			}
		}
	}
	JOINT RightUpLeg
	{
		OFFSET -11.289943 -0.000000 0.000000
		CHANNELS 3 Zrotation Yrotation Xrotation
		JOINT RightLeg
		{
			OFFSET -0.000000 -38.200325 -0.000000
			CHANNELS 3 Zrotation Yrotation Xrotation
			JOINT RightFoot
			{
				OFFSET -0.000000 -39.900856 -0.000000
				CHANNELS 3 Zrotation Yrotation Xrotation
				JOINT RightToeBase
				{
					OFFSET -0.000000 0.000000 15.261641
					CHANNELS 3 Zrotation Yrotation Xrotation
					JOINT RightToeBaseEnd
					{
						OFFSET -0.000000 -0.000000 7.370709
						CHANNELS 3 Zrotation Yrotation Xrotation
						End Site
						{
							OFFSET 0.000000 0.000000 0.000000
						}
					}
				}
				JOINT RightLegEnd
				{
					OFFSET 0.000000 0.000000 0.000000
					CHANNELS 3 Zrotation Yrotation Xrotation
					End Site
					{
						OFFSET 0.000000 0.000000 0.000000
					}
				}
			}
			JOINT RightUpLegEnd
			{
				OFFSET 0.000000 0.000000 0.000000
				CHANNELS 3 Zrotation Yrotation Xrotation
				End Site
				{
					OFFSET 0.000000 0.000000 0.000000
				}
			}
		}
	}
	JOINT LeftUpLeg
	{
		OFFSET 11.315661 0.000000 -0.000000
		CHANNELS 3 Zrotation Yrotation Xrotation
		JOINT LeftLeg
		{
			OFFSET 0.000000 -38.200325 0.000000
			CHANNELS 3 Zrotation Yrotation Xrotation
			JOINT LeftFoot
			{
				OFFSET -0.000000 -39.900856 -0.000000
				CHANNELS 3 Zrotation Yrotation Xrotation
				JOINT LeftToeBase
				{
					OFFSET 0.000000 0.000000 15.261641
					CHANNELS 3 Zrotation Yrotation Xrotation
					JOINT LeftToeBaseEnd
					{
						OFFSET -0.000000 -0.000000 7.539996
						CHANNELS 3 Zrotation Yrotation Xrotation
						End Site
						{
							OFFSET 0.000000 0.000000 0.000000
						}
					}
				}
				JOINT LeftLegEnd
				{
					OFFSET 0.000000 0.000000 0.000000
					CHANNELS 3 Zrotation Yrotation Xrotation
					End Site
					{
						OFFSET 0.000000 0.000000 0.000000
					}
				}
			}
			JOINT LeftUpLegEnd
			{
				OFFSET 0.000000 0.000000 0.000000
				CHANNELS 3 Zrotation Yrotation Xrotation
				End Site
				{
					OFFSET 0.000000 0.000000 0.000000
				}
			}
		}
	}
}
MOTION
Frames: 4
Frame Time: 0.016667
-6.543524 85.509949 10.911629 -6.215658 -2.139737 -18.457556 4.322165 -1.059888 7.616767 1.328879 -0.803604 2.875056 2.726641 -3.133202 12.063156 0.722506 -0.351269 6.804000 14.739607 -5.025444 11.266959 -1.749180 -1.510202 -2.191196 0.160825 0.902171 -22.493084 0.000000 0.000000 0.000000 88.392441 0.482494 11.184462 32.756641 -7.423017 14.258378 0.200473 24.090551 59.650955 30.589952 -12.725371 -11.201147 12.134091 -2.067977 39.005363 0.000009 -0.000015 -30.393482 -0.000005 0.000040 -20.999731 -0.000001 0.000005 -0.000027 20.500042 1.226926 -10.466429 15.165616 -0.387764 0.324376 15.218086 -0.304440 0.311786 -0.000006 0.000007 -0.000013 21.104258 0.451398 -11.121666 14.571894 -0.190873 0.110985 14.825106 -0.087443 0.089337 0.000002 -0.000053 -0.000007 25.654951 -0.614397 -11.776029 17.578156 0.334666 -0.096714 17.392065 0.112608 -0.048170 0.000005 -0.002512 -0.000009 26.788515 -1.819025 -12.845687 18.541336 0.780064 0.103109 18.055265 0.368828 0.035547 0.000241 -0.000004 0.000047 0.000000 0.000000 0.000000 0.000000 0.000000 0.000000 -86.609108 -0.994120 10.354857 -50.753666 6.795267 1.941154 -1.585056 -21.324032 52.928074 -15.297888 3.155947 -15.501421 -7.630814 1.444600 41.277599 -0.000010 0.000031 -19.106628 -0.000075 -0.000028 -13.074312 -0.000084 0.000030 0.002557 3.908937 1.236337 -4.825069 -4.244032 -0.411317 -1.030462 -3.829256 -0.306927 -0.794257 0.000026 -0.001733 -0.000023 2.758383 0.518911 -7.418440 -3.823328 -0.200588 -0.380335 -3.807176 -0.093077 -0.295559 0.001607 -0.000021 0.000070 -2.269408 -0.645703 -11.063493 -5.591594 0.332464 0.321338 -5.704998 0.102563 0.256570 -0.000918 -0.000010 -0.000006 -5.819737 -1.799668 -14.664934 -7.509642 0.781279 0.849228 -7.498162 0.313078 0.640676 -0.001221 0.000016 -0.000050 0.000000 0.000000 0.000000 0.000000 0.000000 0.000000 8.965548 -8.238238 14.595215 -0.103012 -0.341764 19.731213 -8.658207 -18.519871 11.482778 0.057649 0.339346 -17.794384 0.000000 0.000000 0.000000 0.000000 0.000000 0.000000 0.000000 0.000000 0.000000 21.020510 2.641171 2.281277 0.466707 0.969114 29.312670 -10.082202 19.134432 16.678974 2.070628 -0.250816 -19.836124 0.000000 0.000000 0.000000 0.000000 0.000000 0.000000 0.000000 0.000000 0.000000 
-6.558990 85.506355 10.971403 -6.294871 -2.351661 -18.516710 4.354645 -1.089439 7.633889 1.381917 -0.814414 2.857814 2.726805 -3.168704 12.191387 0.717254 -0.375171 6.796212 14.945268 -5.087898 11.283117 -1.750621 -1.542916 -2.169964 0.168916 0.919252 -22.460299 0.000000 0.000000 0.000000 88.714462 0.405993 11.203903 32.493916 -7.481856 14.362195 0.210874 24.117903 57.942665 29.854984 -13.162051 -11.567261 12.056338 -2.063992 39.040619 0.000009 -0.000013 -30.195007 -0.000004 0.000040 -20.860306 -0.000001 0.000004 -0.000028 20.089046 1.222623 -10.481704 14.884638 -0.395350 0.355976 14.945758 -0.312020 0.342376 -0.000006 0.000008 -0.000013 20.676821 0.450969 -11.148788 14.284892 -0.193731 0.123404 14.541762 -0.089911 0.099426 0.000002 -0.000051 -0.000007 25.223787 -0.611558 -11.764329 17.298897 0.339882 -0.105485 17.119551 0.115461 -0.054837 0.000003 -0.002479 -0.000009 26.403761 -1.817862 -12.804129 18.314686 0.788304 0.089501 17.830853 0.376147 0.022408 0.000189 -0.000004 0.000047 0.000000 0.000000 0.000000 0.000000 0.000000 0.000000 -86.936996 -0.953493 10.445996 -50.281612 7.579696 2.240095 -1.564368 -21.045856 51.827347 -14.878322 2.720746 -16.045250 -7.697231 1.455894 41.247112 -0.000010 0.000031 -19.236319 -0.000076 -0.000027 -13.168059 -0.000130 0.000030 0.002561 3.440049 1.229817 -5.010250 -4.218455 -0.411961 -1.025083 -3.787568 -0.307899 -0.790854 0.000026 -0.001649 -0.000022 2.440905 0.515667 -7.558452 -3.755385 -0.200984 -0.379089 -3.732965 -0.093335 -0.294688 0.001611 -0.000021 0.000068 -2.307899 -0.640574 -11.071860 -5.432706 0.333075 0.320256 -5.551377 0.103133 0.256793 -0.000889 -0.000010 -0.000006 -5.655310 -1.790709 -14.550530 -7.288645 0.782692 0.842014 -7.279222 0.313738 0.637980 -0.001156 0.000015 -0.000050 0.000000 0.000000 0.000000 0.000000 0.000000 0.000000 9.090269 -8.204385 14.865416 -0.102146 -0.344236 19.501844 -8.755923 -18.412077 11.500553 0.061373 0.347798 -17.775484 0.000000 0.000000 0.000000 0.000000 0.000000 0.000000 0.000000 0.000000 0.000000 21.085131 2.701585 2.408718 0.469570 0.972363 29.451416 -10.117316 19.263006 16.536278 2.060512 -0.249661 -19.811668 0.000000 0.000000 0.000000 0.000000 0.000000 0.000000 0.000000 0.000000 0.000000 
-6.572134 85.494392 11.036251 -6.365137 -2.536544 -18.597033 4.379568 -1.118015 7.655961 1.440808 -0.826850 2.847786 2.718507 -3.207844 12.321799 0.720823 -0.405204 6.783351 15.122159 -5.171916 11.326082 -1.754215 -1.604969 -2.140307 0.178743 0.931887 -22.436384 0.000000 0.000000 0.000000 89.073990 0.322606 11.222609 32.429356 -7.652934 14.472909 0.226793 24.132172 56.201885 29.225401 -13.471383 -11.886984 11.974731 -2.059241 39.078205 0.000009 -0.000012 -29.985472 -0.000004 0.000040 -20.711605 -0.000001 0.000003 -0.000028 19.671013 1.217483 -10.535621 14.587654 -0.401892 0.387738 14.656455 -0.318744 0.373818 -0.000007 0.000009 -0.000014 20.243458 0.450401 -11.214664 13.984991 -0.196293 0.136233 14.242946 -0.092229 0.109966 0.000003 -0.000050 -0.000007 24.790178 -0.608449 -11.794772 17.003054 0.344371 -0.115192 16.830366 0.118017 -0.062383 0.000001 -0.002464 -0.000009 26.022713 -1.813774 -12.804553 18.072105 0.794422 0.073142 17.590528 0.381984 0.006505 0.000128 -0.000004 0.000046 0.000000 0.000000 0.000000 0.000000 0.000000 0.000000 -87.290627 -0.911804 10.541208 -49.925072 8.541190 2.535785 -1.534413 -20.690275 50.775620 -14.422939 2.310090 -16.534424 -7.759212 1.466166 41.219360 -0.000010 0.000031 -19.353640 -0.000077 -0.000026 -13.255325 -0.000125 0.000029 0.002529 2.979023 1.223475 -5.184195 -4.185216 -0.412117 -1.021743 -3.739586 -0.308416 -0.790067 0.000026 -0.001576 -0.000021 2.134854 0.512551 -7.703255 -3.678814 -0.201280 -0.378791 -3.652925 -0.093584 -0.294777 0.001616 -0.000021 0.000064 -2.316357 -0.635387 -11.109905 -5.256071 0.333405 0.320764 -5.380199 0.103758 0.258336 -0.000859 -0.000011 -0.000005 -5.440626 -1.779363 -14.477612 -7.042552 0.783472 0.838882 -7.038877 0.314147 0.639491 -0.001107 0.000015 -0.000050 0.000000 0.000000 0.000000 0.000000 0.000000 0.000000 9.198451 -8.161815 15.160188 -0.101940 -0.346283 19.299391 -8.826595 -18.321426 11.478763 0.063476 0.355793 -17.755136 0.000000 0.000000 0.000000 0.000000 0.000000 0.000000 0.000000 0.000000 0.000000 21.141169 2.741316 2.539805 0.472594 0.974661 29.611959 -10.144694 19.345131 16.384136 2.050689 -0.248592 -19.791227 0.000000 0.000000 0.000000 0.000000 0.000000 0.000000 0.000000 0.000000 0.000000 
-6.584042 85.474083 11.105028 -6.424919 -2.705457 -18.696171 4.397885 -1.145239 7.683701 1.502559 -0.840540 2.847396 2.704871 -3.250765 12.451389 0.730663 -0.440608 6.764631 15.264941 -5.258732 11.383977 -1.760052 -1.679308 -2.107845 0.186786 0.941125 -22.415749 0.000000 0.000000 0.000000 89.461075 0.237193 11.240457 32.557159 -7.933370 14.588909 0.246283 24.116880 54.473511 28.728024 -13.630992 -12.145527 11.889292 -2.053431 39.118668 0.000010 -0.000011 -29.764587 -0.000003 0.000039 -20.553707 -0.000000 0.000003 -0.000029 19.236631 1.211902 -10.625719 14.280427 -0.407014 0.417638 14.356270 -0.324186 0.404059 -0.000007 0.000010 -0.000015 19.797617 0.449765 -11.315672 13.678758 -0.198391 0.148586 13.935754 -0.094251 0.120199 0.000004 -0.000051 -0.000007 24.352047 -0.605304 -11.865792 16.699255 0.347876 -0.124737 16.532896 0.120064 -0.069971 -0.000000 -0.002462 -0.000009 25.641045 -1.807589 -12.847623 17.820145 0.797851 0.056395 17.340639 0.385806 -0.009970 0.000061 -0.000004 0.000046 0.000000 0.000000 0.000000 0.000000 0.000000 0.000000 -87.658119 -0.870130 10.635867 -49.707142 9.619823 2.800610 -1.497394 -20.273535 49.796535 -13.981177 1.892263 -16.951254 -7.815182 1.474730 41.195694 -0.000011 0.000030 -19.453722 -0.000078 -0.000025 -13.332353 -0.000081 0.000028 0.002469 2.557878 1.217361 -5.331649 -4.142073 -0.411441 -1.018358 -3.683050 -0.308123 -0.789881 0.000026 -0.001517 -0.000021 1.862415 0.509621 -7.838739 -3.593388 -0.201343 -0.378581 -3.566623 -0.093722 -0.295082 0.001624 -0.000021 0.000058 -2.290349 -0.630376 -11.167154 -5.067782 0.333211 0.321704 -5.197693 0.104241 0.260350 -0.000827 -0.000011 -0.000005 -5.181444 -1.766395 -14.443307 -6.781604 0.782994 0.836814 -6.786452 0.313778 0.642644 -0.001067 0.000015 -0.000050 0.000000 0.000000 0.000000 0.000000 0.000000 0.000000 9.294467 -8.105412 15.463844 -0.102387 -0.347719 19.136238 -8.876687 -18.245207 11.420804 0.064627 0.362998 -17.737007 0.000000 0.000000 0.000000 0.000000 0.000000 0.000000 0.000000 0.000000 0.000000 21.191141 2.771732 2.668332 0.475679 0.976002 29.806896 -10.168061 19.391350 16.224180 2.040837 -0.247014 -19.779270 0.000000 0.000000 0.000000 0.000000 0.000000 0.000000 0.000000 0.000000 0.000000 
